<svg version="1.2" xmlns="http://www.w3.org/2000/svg" viewBox="0 0 484 144" width="513" height="153"><style>.a{fill:#fff}</style><path fill-rule="evenodd" class="a" d="m203 90.7c0 28.9-23.4 52.4-52.4 52.4-29 0-52.5-23.4-52.5-52.4-0.1-29 23.4-52.5 52.4-52.5 29 0 52.5 23.4 52.5 52.5zm-28-0.1c0-13.5-11-24.5-24.5-24.5-13.5 0-24.5 11-24.5 24.5 0 13.6 11 24.5 24.5 24.5 13.5 0 24.5-10.9 24.5-24.5z"/><path fill-rule="evenodd" class="a" d="m593.8 90.6c0 28.9-23.5 52.4-52.4 52.4-28.9 0-52.4-23.4-52.4-52.4 0-28.9 23.4-52.4 52.4-52.4 28.9 0 52.4 23.4 52.4 52.4zm-27.9 0c0-13.5-11-24.5-24.5-24.5-13.5 0-24.5 11-24.5 24.5 0 13.6 11 24.5 24.5 24.5 13.5 0 24.5-10.9 24.5-24.5z"/><path class="a" d="m88 52.6q0.8 0.6 1.5 1.5-0.8-0.7-1.5-1.5z"/><path class="a" d="m46.7 67.5c1.3-0.3 2.7-0.5 4-0.6 8.2-0.4 15.2 2.7 21.8 7.3 5.3 3.7 10.6 3.4 14.8-0.1 3-2.6 4.5-6.4 4.2-10.3 0 0 0-0.1 0-0.2-0.1-1.2-0.5-2.3-1-3.4-2.3-6.1-9.6-18-31.4-20.9-0.3 0-0.6-0.1-0.9-0.1-1.7-0.2-3.3-0.4-5-0.4q-0.5 0-0.9 0c-4.2-0.2-8.4 0.1-12.5 1-12.8 2.8-24 10.7-31 21.8-4.7 6.4-7.6 14.2-8.4 22.3-0.1 0.7-0.1 1.3-0.2 1.9-0.9 8.8 0.4 17.7 3.8 25.9 0.1 0.3 0.2 0.5 0.3 0.8 0.2 0.5 0.5 1 0.7 1.5 5.4 10.9 14.5 19.5 25.6 24.5 4.3 1.6 8.7 2.7 13.2 3.4h0.1 0.3q1.2 0.1 2.4 0.3c6 0.6 10.2 0.5 12.9-0.2 10.9-1.4 20.9-6.8 28-15.2 5-5.7 5.1-13.9 0.7-18.8-4.3-4.5-10.3-4.2-17.3 0.1-4.2 2.7-8.8 4.7-13.6 5.9-12.9 2.9-25.7-5.1-28.6-18-2.9-12.8 5.1-25.6 18-28.5z"/><path class="a" d="m442.1 66.9c8.3-0.4 15.4 2.7 22.1 7.3 5.3 3.7 10.8 3.4 15-0.1 3-2.6 4.6-6.4 4.2-10.3 0-0.1 0-0.1 0-0.2-0.1-1.2-0.5-2.3-1-3.4-2.3-6.1-9.7-18-31.8-20.9-0.4-0.1-0.9-0.1-1.3-0.2-1.5-0.2-3.1-0.3-4.7-0.4-0.3 0-0.6 0-1 0-4.2-0.2-8.5 0.1-12.7 1-13 2.8-24.3 10.6-31.5 21.8-4.8 6.6-7.8 14.4-8.5 22.5-0.1 0.7-0.1 1.3-0.2 1.9-0.9 8.8 0.4 17.7 3.8 25.9 0.1 0.3 0.2 0.5 0.3 0.8 0.2 0.5 0.5 1 0.8 1.5 1.9 3.6 4.1 7.1 6.8 10.2 5.2 6.1 11.8 11 19.1 14.3 4.3 1.6 8.8 2.7 13.4 3.4h0.1 0.3q1.2 0.2 2.4 0.3c6.1 0.6 10.3 0.5 13.1-0.2 11-1.4 21.1-6.8 28.4-15.1 5.1-5.7 5.2-13.9 0.7-18.8-4.2-4.6-10.3-4.3-17.5 0-4.3 2.7-8.9 4.7-13.8 5.9-13.1 3.1-26.2-5.1-29.2-18.2-0.2-0.8-0.3-1.7-0.4-2.5-1.4-13.5 9.3-25.8 23.1-26.5z"/><path class="a" d="m374.5 25.6c-5.9 5.9-15.3 5.9-21.2 0-5.9-5.8-5.9-15.3 0-21.2 5.9-5.8 15.3-5.8 21.2 0 5.9 5.9 5.9 15.4 0 21.2z"/><path class="a" d="m363.9 38.2c-12.4 0-15 21-15 28.9v47.1c0 6.6 1.2 14.4 4.4 20.4 2 3.7 5.7 8.5 10.6 8.5 12.4 0 15-21 15-28.9v-47.2c0-6.6-1.2-14.5-4.4-20.4-2-3.7-5.7-8.4-10.6-8.4z"/><path class="a" d="m314.1 43.3c-4.8-6.9-11.1-6.5-17.2-0.6-13.3 11.4-24.5 40.8-24.5 40.8-3.7-11-17.7-33.1-22.8-40.2-1.4-1.9-3.3-3.4-5.4-4.3-1.6-0.6-3.2-0.9-4.9-0.8-2.1 0.2-4.1 0.8-6 1.9-2.9 2-5.7 5.6-8.2 10.8-10.9 22-14.8 45.6-14.7 69.8 0 0-2 18 7.6 21.7 0.2 0.1 0.5 0.2 0.7 0.3 0.3 0.1 0.6 0.2 0.9 0.2h0.1 0.1 0.3c11.3 1.3 17.6-22.3 17.6-22.3l6.3-22.7c4 8.7 13.3 26.9 23.4 32 1.2 0.7 2.6 1.1 4 1.3 11.8 1.4 24.5-23.6 29.4-34.4 1.8 11.2 7.3 39.4 19.4 45.2 0.8 0.4 1.7 0.7 2.6 0.9h0.1c3.6 0.5 7.2-1.7 9.2-6.4 1.5-3.8 2.3-7.8 2.4-11.8 0.6-19.9-2.3-39.8-8.7-58.7-2.9-8.1-6.8-15.7-11.7-22.7z"/></svg>